<?xml version="1.0" encoding="utf-8"?>
<!-- Generator: Adobe Illustrator 21.1.0, SVG Export Plug-In . SVG Version: 6.00 Build 0)  -->
<svg version="1.1" id="Слой_1" xmlns="http://www.w3.org/2000/svg" xmlns:xlink="http://www.w3.org/1999/xlink" x="0px" y="0px"
	 viewBox="4.5 2.6 11 10.9" style="enable-background:new 4.5 2.6 11 10.9;" xml:space="preserve">
<style type="text/css">
	.st0{fill:#F0E394;}
</style>
<path class="st0" d="M6.4,11.3C4,8.5,4.5,3.1,4.5,2.8l0-0.3h0.3c0.5,0,5.1,0.1,7.9,3.4c2.1,2.5,0.8,6.4,0.8,6.6l0,0.1l-0.1,0
	c0,0-1.2,0.4-2.7,0.4C8.9,13.2,7.4,12.6,6.4,11.3z M12.4,6.4c-2.3-2.8-6-3.2-7.2-3.2C5.1,4.4,5,8.7,6.9,10.9
	c0.9,1.1,2.2,1.6,3.9,1.6c1.1,0,2-0.2,2.3-0.4C13.3,11.5,14,8.4,12.4,6.4z"/>
<path class="st0" d="M15.2,13.5c0.1,0,0.3-0.1,0.3-0.2c0.1-0.2,0-0.4-0.2-0.4c0,0-2.1-0.8-3.6-2.2c-1.4-1.2-2.9-3.6-2.9-3.6
	C8.7,7,8.5,6.9,8.4,7C8.2,7.1,8.2,7.3,8.3,7.5c0.1,0.1,1.5,2.5,3,3.8c1.6,1.4,3.7,2.2,3.8,2.3C15.1,13.5,15.2,13.5,15.2,13.5z"/>
</svg>
