<?xml version="1.0" encoding="utf-8"?>
<!-- Generator: Adobe Illustrator 21.1.0, SVG Export Plug-In . SVG Version: 6.00 Build 0)  -->
<svg version="1.1" id="Слой_1" xmlns="http://www.w3.org/2000/svg" xmlns:xlink="http://www.w3.org/1999/xlink" x="0px" y="0px"
	 viewBox="2.6 1.4 14.7 13.3" style="enable-background:new 2.6 1.4 14.7 13.3;" xml:space="preserve">
<style type="text/css">
	.st0{fill:#F0E394;stroke:#F0E394;stroke-width:0.25;stroke-miterlimit:10;}
</style>
<g>
	<path class="st0" d="M3.3,8.3C3,8.6,2.8,9,2.8,9.4c0,0.5,0.3,0.9,0.7,1.2c-0.1,0.2-0.2,0.4-0.2,0.6c0,0.6,0.4,1.2,1,1.3
		c-0.1,0.2-0.1,0.3-0.1,0.5c0,0.8,0.6,1.4,1.4,1.4h5.5c0.4,0,0.7-0.1,1-0.3c0.2,0.3,0.5,0.4,0.8,0.4h3.2c0.6,0,1-0.5,1-1v-5
		c0-0.6-0.5-1-1-1H13c-0.2,0-0.4,0.1-0.5,0.1c-0.1-0.2-0.2-0.4-0.4-0.6l-2-3.2L9.5,1.5H8.7c-0.9,0-1.4,1.3-1.4,2l0,0l0.2,2.4l-3.3,0
		c-0.8,0-1.4,0.6-1.4,1.4C2.8,7.7,3,8.1,3.3,8.3z M12.4,13.7l0.1-5.5C12.7,8,12.8,8,13,8h3.2c0.3,0,0.5,0.2,0.5,0.5v5
		c0,0.3-0.2,0.5-0.5,0.5H13C12.7,14,12.5,13.9,12.4,13.7z M4.2,8.3L3.8,8.1C3.5,8,3.3,7.6,3.3,7.3c0-0.5,0.4-0.9,0.9-0.9l3.8,0
		L7.7,3.5C7.7,2.9,8.2,2,8.7,2h0.5l0.4,2.1l2.1,3.3c0.2,0.3,0.4,0.5,0.5,0.8L12,13.6c-0.2,0.2-0.5,0.4-0.8,0.4H5.6
		c-0.5,0-0.9-0.4-0.9-0.9c0-0.2,0.1-0.4,0.2-0.6l0.3-0.4H4.7c-0.5,0-0.9-0.4-0.9-0.9c0-0.2,0.1-0.4,0.2-0.6l0.2-0.3l-0.3-0.1
		c-0.4-0.1-0.6-0.5-0.6-0.9c0-0.3,0.2-0.7,0.5-0.8L4.2,8.3z"/>
</g>
</svg>
